<svg xmlns="http://www.w3.org/2000/svg" width="136.313" height="45.477" viewBox="0 0 136.313 45.477">
  <g id="Group_397" data-name="Group 397" transform="translate(-499.585 368)">
    <g id="robotic" transform="translate(499.585 -368)">
      <g id="Group_152" data-name="Group 152" transform="translate(9.678 10.145)">
        <g id="Group_151" data-name="Group 151">
          <path id="Path_570" data-name="Path 570" d="M161.111,105.178a3.087,3.087,0,1,0,3.087,3.087A3.087,3.087,0,0,0,161.111,105.178Zm0,4.63a1.539,1.539,0,1,1,0-3.079v-.008a1.543,1.543,0,1,1,0,3.087Z" transform="translate(-158.024 -105.178)" fill="#494b57"/>
        </g>
      </g>
      <g id="Group_154" data-name="Group 154" transform="translate(18.505 10.145)">
        <g id="Group_153" data-name="Group 153" transform="translate(0)">
          <path id="Path_571" data-name="Path 571" d="M252.631,105.178a3.087,3.087,0,1,0,3.087,3.087A3.087,3.087,0,0,0,252.631,105.178Zm0,4.63a1.539,1.539,0,1,1,0-3.079v-.008a1.543,1.543,0,0,1,0,3.087Z" transform="translate(-249.544 -105.178)" fill="#494b57"/>
        </g>
      </g>
      <g id="Group_156" data-name="Group 156" transform="translate(3.286 0)">
        <g id="Group_155" data-name="Group 155" transform="translate(0 0)">
          <path id="Path_572" data-name="Path 572" d="M119.475,13.7a4.3,4.3,0,0,0-3.653-3.491c-.509-1.883-1.975-3.488-4.923-3.488h-4.476v-1.7a2.57,2.57,0,1,0-1.543,0V6.681h-4.468a4.758,4.758,0,0,0-4.939,3.488,4.3,4.3,0,0,0-.177,8.488l-.008.039c.232,3.388,2.747,4.63,5.116,4.63H110.9a4.719,4.719,0,0,0,5.116-4.63A4.3,4.3,0,0,0,119.475,13.7Zm-24.21,3.454a2.747,2.747,0,0,1,0-5.278Zm9.36-14.538a1.026,1.026,0,1,1,1.026,1.026A1.026,1.026,0,0,1,104.625,2.615ZM114.5,18.14a3.261,3.261,0,0,1-3.6,3.6H100.412a3.261,3.261,0,0,1-3.6-3.6l-.008-6.266a3.257,3.257,0,0,1,3.6-3.6H110.9a3.257,3.257,0,0,1,3.6,3.6Zm1.512-1.042V11.821a2.745,2.745,0,0,1,0,5.278Z" transform="translate(-91.76 -0.001)" fill="#494b57"/>
        </g>
      </g>
      <g id="Group_158" data-name="Group 158" transform="translate(11.993 18.417)">
        <g id="Group_157" data-name="Group 157" transform="translate(0)">
          <path id="Path_573" data-name="Path 573" d="M191.623,190.938H182.8a.772.772,0,1,0,0,1.543h8.828a.772.772,0,0,0,0-1.543Z" transform="translate(-182.024 -190.938)" fill="#494b57"/>
        </g>
      </g>
      <g id="Group_160" data-name="Group 160" transform="translate(0 21.764)">
        <g id="Group_159" data-name="Group 159" transform="translate(0)">
          <path id="Path_574" data-name="Path 574" d="M92.04,228.641h0a2.994,2.994,0,0,0-5.911-.648l-2.06.4h-18.4l-2.06-.4a2.994,2.994,0,1,0-3.689,3.534v5.764A2.994,2.994,0,0,0,57.7,240.17v1.366a.772.772,0,1,0,1.543,0v-1.374a1.451,1.451,0,1,1,2.9,0v1.374a.772.772,0,1,0,1.543,0v-1.374a2.994,2.994,0,0,0-2.222-2.878V231.52a2.987,2.987,0,0,0,2.068-1.975l1.289.255v9.522a9.978,9.978,0,0,0,.864,4.051v.069a10.032,10.032,0,0,0,18.288,0l.039-.085a9.97,9.97,0,0,0,.887-4.036V229.8l1.289-.255a2.987,2.987,0,0,0,2.068,1.975v5.764a2.994,2.994,0,0,0-2.222,2.878v1.374a.772.772,0,1,0,1.543,0v-1.374a1.451,1.451,0,0,1,2.9,0v1.374a.772.772,0,1,0,1.543,0v-1.374a2.994,2.994,0,0,0-2.222-2.878V231.52A2.994,2.994,0,0,0,92.04,228.641ZM60.7,230.092a1.451,1.451,0,1,1,1.451-1.451A1.451,1.451,0,0,1,60.7,230.092Zm14.175,17.725a8.488,8.488,0,0,1-7.169-3.943H82.04A8.489,8.489,0,0,1,74.871,247.817Zm8.488-8.488a8.487,8.487,0,0,1-.563,3.009H66.931a8.487,8.487,0,0,1-.563-3.009v-9.391H83.359Zm5.7-9.237h-.008l-.015-.023a1.026,1.026,0,1,1,.023.023Z" transform="translate(-57.693 -225.638)" fill="#494b57"/>
        </g>
      </g>
      <g id="Group_162" data-name="Group 162" transform="translate(14.481 27.129)">
        <g id="Group_161" data-name="Group 161" transform="translate(0)">
          <path id="Path_575" data-name="Path 575" d="M213.245,285.635a.772.772,0,0,0-.515-.2h-2.315l2.84-2.917a.772.772,0,0,0-1.1-1.073l-4.113,4.229a.772.772,0,0,0,.556,1.312h2.377l-2.925,3.256a.772.772,0,0,0,.054,1.088h0a.772.772,0,0,0,1.088-.054l4.113-4.553A.772.772,0,0,0,213.245,285.635Z" transform="translate(-207.817 -281.253)" fill="#494b57"/>
        </g>
      </g>
    </g>
    <text id="RPA_Jobs" data-name="RPA Jobs" transform="translate(538.898 -336.06)" fill="#494b57" font-size="21" font-family="Arial-BoldMT, Arial" font-weight="700"><tspan x="0" y="0">RPA Jobs</tspan></text>
  </g>
</svg>
