<svg xmlns="http://www.w3.org/2000/svg" width="13.331" height="13.322" viewBox="0 0 13.331 13.322">
  <g id="phone-receiver" transform="translate(0 -0.188)">
    <g id="Group_144" data-name="Group 144" transform="translate(0 0.188)">
      <path id="Path_560" data-name="Path 560" d="M13.324,10.7a.644.644,0,0,1-.2.564L11.25,13.129a1.056,1.056,0,0,1-.332.24,1.37,1.37,0,0,1-.4.127l-.085.007q-.07.007-.183.007a6.506,6.506,0,0,1-.868-.092,6.591,6.591,0,0,1-1.468-.452,12.319,12.319,0,0,1-1.969-1.08A14.677,14.677,0,0,1,3.6,9.911,15.464,15.464,0,0,1,1.964,8.048,13.272,13.272,0,0,1,.92,6.4,8.855,8.855,0,0,1,.327,5.035,7.263,7.263,0,0,1,.059,3.977,3.5,3.5,0,0,1,0,3.279Q.016,3.025.016,3a1.372,1.372,0,0,1,.127-.4,1.058,1.058,0,0,1,.24-.332L2.26.386a.622.622,0,0,1,.452-.2.526.526,0,0,1,.325.106.981.981,0,0,1,.24.261L4.786,3.42a.687.687,0,0,1,.071.494.88.88,0,0,1-.24.452l-.691.691a.235.235,0,0,0-.049.092.348.348,0,0,0-.021.106,2.548,2.548,0,0,0,.254.677,6.218,6.218,0,0,0,.522.826,9.166,9.166,0,0,0,1,1.122A9.347,9.347,0,0,0,6.762,8.888a6.52,6.52,0,0,0,.826.529,2.194,2.194,0,0,0,.508.2l.176.035a.336.336,0,0,0,.092-.021.236.236,0,0,0,.092-.049l.8-.818a.865.865,0,0,1,.593-.226.737.737,0,0,1,.381.085h.014l2.724,1.609A.71.71,0,0,1,13.324,10.7Z" transform="translate(0 -0.188)" fill="#443b6f"/>
    </g>
  </g>
</svg>
