<svg id="edit" xmlns="http://www.w3.org/2000/svg" width="13.066" height="13" viewBox="0 0 13.066 13">
  <path id="Path_574" data-name="Path 574" d="M12.059,46.064a.325.325,0,0,0-.325.325v2.889a.977.977,0,0,1-.976.976H1.627a.977.977,0,0,1-.976-.976V40.8a.977.977,0,0,1,.976-.976H4.516a.325.325,0,1,0,0-.651H1.627A1.629,1.629,0,0,0,0,40.8v8.48a1.629,1.629,0,0,0,1.627,1.627h9.131a1.629,1.629,0,0,0,1.627-1.627V46.39a.325.325,0,0,0-.325-.325Zm0,0" transform="translate(0 -37.906)" fill="#443b6f"/>
  <path id="Path_575" data-name="Path 575" d="M116.925.69a1.464,1.464,0,0,0-2.071,0L109.049,6.5a.325.325,0,0,0-.084.143L108.2,9.394a.325.325,0,0,0,.4.4l2.756-.764a.325.325,0,0,0,.143-.084l5.805-5.806a1.466,1.466,0,0,0,0-2.071Zm-7.167,6.017,4.751-4.751,1.532,1.532L111.29,8.239Zm-.306.614,1.224,1.224-1.693.469Zm7.4-4.639-.345.345-1.532-1.532.345-.345a.813.813,0,0,1,1.15,0l.382.382A.815.815,0,0,1,116.847,2.682Zm0,0" transform="translate(-104.67 -0.261)" fill="#443b6f"/>
</svg>
